<svg width="44" height="52" viewBox="0 0 44 52" fill="none" xmlns="http://www.w3.org/2000/svg">
<path d="M22 51C33.598 51 43 41.598 43 30C43 18.402 33.598 9 22 9C10.402 9 1 18.402 1 30C1 41.598 10.402 51 22 51Z" stroke="#313131" stroke-width="2" stroke-miterlimit="10"/>
<path d="M21.9998 45.2C30.3945 45.2 37.1998 38.3947 37.1998 30C37.1998 21.6053 30.3945 14.8 21.9998 14.8C13.6051 14.8 6.7998 21.6053 6.7998 30C6.7998 38.3947 13.6051 45.2 21.9998 45.2Z" fill="white" stroke="#313131" stroke-width="2" stroke-miterlimit="10"/>
<path d="M22 34.5L16.5 37.5L17.7 31.4L13.2 27.1L19.3 26.3L22 20.7L24.7 26.3L30.7999 27.1L26.3 31.4L27.5 37.5L22 34.5Z" stroke="#313131" stroke-width="2" stroke-miterlimit="10" stroke-linejoin="round"/>
<path d="M40.1999 0L35.3999 14L37.2999 14.7L42.3999 0H40.1999Z" fill="#313131"/>
<path d="M0.699951 0L6.59995 15L8.39995 14.2L2.89995 0H0.699951Z" fill="#313131"/>
<path d="M15.7 0L19.2 9L21.1 8.3L17.9 0H15.7Z" fill="#313131"/>
<path d="M25.3 0L22.8 8.5L24.7001 9.1L27.4 0H25.3Z" fill="#313131"/>
</svg>
