<svg width="52" height="52" viewBox="0 0 52 52" fill="none" xmlns="http://www.w3.org/2000/svg">
<g clip-path="url(#clip0)">
<path d="M27.9 35.9C27.9 36.2 27.9 36.4 27.9 36.7C27.9 44.1 21.9 50.2 14.4 50.2C6.9 50.2 1 44.2 1 36.7C1 29.2 7 23.2 14.5 23.2C18.8 23.2 22.6 25.2 25 28.3" stroke="#313131" stroke-width="2" stroke-miterlimit="10"/>
<path d="M19.1001 23.7L26.3001 19.2C28.1001 18.1 30.5001 18.5 31.7001 20C32.9001 21.5 32.5001 23.7 30.7001 24.8L30.0001 25.3L21.9001 30C20.0001 31.1 19.4001 33.4 20.5001 35.3C21.6001 37.2 23.9001 37.8 25.8001 36.7L37.6001 30C39.0001 29.2 40.1001 26.7 40.1001 26.7C41.6001 23.1 44.7001 16.2 48.7001 12.9C50.9001 11.1 51.4001 10.8 51.4001 10.8" stroke="#313131" stroke-width="2" stroke-miterlimit="10"/>
<path d="M12.5 22.9C13.3 20.5 17.5 9.09999 22.9 7.39999C27.2 6.09999 32.6 5.69999 38.5 0.799988" stroke="#313131" stroke-width="2" stroke-miterlimit="10"/>
<path d="M16.8 33.3C16.8 33.3 14 30.4 12 33.4C11.3 34.4 11.7 35.8 12.8 36.7C13.7 37.5 14.8 37.9 15.7 38.7C16.5 39.4 16.8 40.6 16.3 41.5C15.4 42.9 13.9 42.8 12.7 42.4C12.2 42.3 11.4 41.9 11 41.6" stroke="#313131" stroke-width="2" stroke-miterlimit="10" stroke-linecap="round"/>
<path d="M14.2 29.8V31.6" stroke="#313131" stroke-width="2" stroke-miterlimit="10"/>
<path d="M14.2 43.4V45.2" stroke="#313131" stroke-width="2" stroke-miterlimit="10"/>
</g>
<defs>
<clipPath id="clip0">
<rect width="51.9" height="51.2" fill="white"/>
</clipPath>
</defs>
</svg>
