<svg width="44" height="45" viewBox="0 0 44 45" fill="none" xmlns="http://www.w3.org/2000/svg">
<g clip-path="url(#clip0)">
<path d="M25.3 38.4V18.4" stroke="#313131" stroke-width="2" stroke-miterlimit="10" stroke-linejoin="round"/>
<path d="M7.8999 44.4C7.8999 44.4 12.2999 37.6 17.4999 37C22.6999 36.4 27.3999 40.5 31.6999 39.2C37.0999 37.6 39.2999 44.2 39.2999 44.2" stroke="#313131" stroke-width="2" stroke-miterlimit="10" stroke-linejoin="round"/>
<path d="M37 25.4C32.5 28.4 25.7 26.1 25.7 26.1C25.7 26.1 26.2999 19 30.7999 16C35.2999 13 42.0999 15.3 42.0999 15.3C42.0999 15.3 41.5 22.4 37 25.4Z" stroke="#313131" stroke-width="2" stroke-miterlimit="10" stroke-linejoin="round"/>
<path d="M18.7 4.10002C25.5 9.30002 25.6 20.5 25.6 20.5C25.6 20.5 14.7 23.3 7.9 18.1C1.1 12.9 1 1.80002 1 1.80002C1 1.80002 11.9 -1.09998 18.7 4.10002Z" stroke="#313131" stroke-width="2" stroke-miterlimit="10" stroke-linejoin="round"/>
<path d="M26 25.5C26 25.5 30.2 20 35.6 19.2" stroke="#313131" stroke-width="2" stroke-miterlimit="10" stroke-linejoin="round"/>
<path d="M9.69995 9C9.69995 9 20.2 10.5 25 20.5" stroke="#313131" stroke-width="2" stroke-miterlimit="10" stroke-linejoin="round"/>
</g>
<defs>
<clipPath id="clip0">
<rect width="43.1" height="44.9" fill="white"/>
</clipPath>
</defs>
</svg>
