<svg width="69" height="61" viewBox="0 0 69 61" fill="none" xmlns="http://www.w3.org/2000/svg">
<g clip-path="url(#clip0)">
<path d="M57.6 34.3L64.2 53.1L42.8 59.1L22.6 53.1L4.40002 59.1L8.40002 41.2" stroke="#313131" stroke-width="2" stroke-miterlimit="10" stroke-linejoin="round"/>
<path d="M25.5 33.4L40.8 38.1L50.5 35.1" stroke="#313131" stroke-width="2" stroke-miterlimit="10" stroke-linejoin="round"/>
<path d="M67.3 14.6C67.3 22.1 53.7 39.6 53.7 39.6C53.7 39.6 40.1 22.1 40.1 14.6C40.1 7.1 46.2 1 53.7 1C61.2 1 67.3 7.1 67.3 14.6Z" stroke="#313131" stroke-width="2" stroke-miterlimit="10" stroke-linejoin="round"/>
<path d="M53.7 21.5C57.4003 21.5 60.4 18.5003 60.4 14.8C60.4 11.0997 57.4003 8.09998 53.7 8.09998C49.9997 8.09998 47 11.0997 47 14.8C47 18.5003 49.9997 21.5 53.7 21.5Z" stroke="#313131" stroke-width="2" stroke-miterlimit="10" stroke-linejoin="round"/>
<path d="M24.1 35.7L22.6 53.6" stroke="#313131" stroke-width="2" stroke-miterlimit="10" stroke-linejoin="round"/>
<path d="M40.3 38.1L42.8 58" stroke="#313131" stroke-width="2" stroke-miterlimit="10" stroke-linejoin="round"/>
<path d="M28.2 25C28.2 32.5 14.6 50 14.6 50C14.6 50 1 32.5 1 25C1 17.5 7.1 11.4 14.6 11.4C22.1 11.4 28.2 17.5 28.2 25Z" stroke="#313131" stroke-width="2" stroke-miterlimit="10" stroke-linejoin="round"/>
<path d="M14.6 31.9C18.3003 31.9 21.3 28.9003 21.3 25.2C21.3 21.4997 18.3003 18.5 14.6 18.5C10.8997 18.5 7.90002 21.4997 7.90002 25.2C7.90002 28.9003 10.8997 31.9 14.6 31.9Z" stroke="#313131" stroke-width="2" stroke-miterlimit="10" stroke-linejoin="round"/>
</g>
<defs>
<clipPath id="clip0">
<rect width="68.3" height="60.1" fill="white"/>
</clipPath>
</defs>
</svg>
