<svg width="53" height="53" viewBox="0 0 53 53" fill="none" xmlns="http://www.w3.org/2000/svg">
<g clip-path="url(#clip0)">
<path d="M45.4 19.4C45.1 18.4 44.6 17.5 44.2 16.6L47.7 12.7C46.1 10.1 44.1 7.89997 41.7 6.19997L37.5 9.29997C35.8 8.19997 34 7.29997 32.1 6.69997L31.9 1.49997C29 0.999972 26 0.799972 23.1 1.19997L22.4 6.39997C21.4 6.59997 20.5 6.89997 19.5 7.19997C18.5 7.49997 17.6 7.99997 16.7 8.39997L12.8 4.89997C10.2 6.49997 8.00005 8.49997 6.30005 10.9L9.40005 15C8.30005 16.7 7.40005 18.5 6.80005 20.4L1.60005 20.6C1.00005 23.5 0.800047 26.4 1.20005 29.4L6.40005 30.1C6.60005 31.1 6.90005 32 7.20005 33C7.50005 34 8.00005 34.9 8.40005 35.8L4.90005 39.7C6.50005 42.3 8.50005 44.5 10.9 46.2L15.1 43.1C16.8 44.2 18.6 45.1 20.5 45.7L20.7 50.9C23.6 51.5 26.5 51.7 29.5 51.3L30.2 46.1C31.2 45.9 32.1 45.6 33.1 45.3C34.1 45 35 44.5 35.9 44.1L39.8 47.6C42.4 46 44.6 44 46.3 41.6L43.2 37.4C44.3 35.7 45.2 33.9 45.8 32L51 31.8C51.6 28.9 51.8 26 51.4 23L46.2 22.3C46 21.3 45.7 20.4 45.4 19.4Z" stroke="#313131" stroke-width="2" stroke-miterlimit="10" stroke-linejoin="round"/>
<path d="M26.2999 41.7C34.8051 41.7 41.6999 34.8052 41.6999 26.3C41.6999 17.7948 34.8051 10.9 26.2999 10.9C17.7947 10.9 10.8999 17.7948 10.8999 26.3C10.8999 34.8052 17.7947 41.7 26.2999 41.7Z" stroke="#313131" stroke-width="2" stroke-miterlimit="10" stroke-linejoin="round"/>
<path d="M28.6001 17.4V24.1H24.6001V17.4C21.4001 18.3 19.1001 21.2 19.1001 24.6C19.1001 28.7 22.5001 32.1 26.6001 32.1C30.7001 32.1 34.1001 28.7 34.1001 24.6C34.1001 21.1 31.8001 18.2 28.6001 17.4Z" stroke="#313131" stroke-width="2" stroke-miterlimit="10" stroke-linejoin="round"/>
<path d="M30.6001 31.1V41.1" stroke="#313131" stroke-width="2" stroke-miterlimit="10" stroke-linejoin="round"/>
<path d="M22.6001 41.1V31.1" stroke="#313131" stroke-width="2" stroke-miterlimit="10" stroke-linejoin="round"/>
</g>
<defs>
<clipPath id="clip0">
<rect width="52.6" height="52.6" fill="white"/>
</clipPath>
</defs>
</svg>
