<svg width="59" height="53" viewBox="0 0 59 53" fill="none" xmlns="http://www.w3.org/2000/svg">
<g clip-path="url(#clip0)">
<path d="M14.1001 6H36.0001" stroke="#313131" stroke-width="2" stroke-miterlimit="10" stroke-linejoin="round"/>
<path d="M40.2 45H1V6H8.9" stroke="#313131" stroke-width="2" stroke-miterlimit="10" stroke-linejoin="round"/>
<path d="M41 6H49V36" stroke="#313131" stroke-width="2" stroke-miterlimit="10" stroke-linejoin="round"/>
<path d="M1 15H49" stroke="#313131" stroke-width="2" stroke-miterlimit="10"/>
<path d="M20.5 40H18V27.1C18 26.7 18 26.3 18 25.8C18 25.3 18 24.9 18 24.4C18 23.9 18 23.5 18 23.1C18 22.7 18 22.3 18 22C17.8 22.2 17.7 22.3 17.6 22.4C17.5 22.5 17.4 22.6 17.2 22.8C17.1 22.9 16.9 23 16.8 23.2C16.7 23.3 16.5 23.5 16.3 23.6L14.2 25.3L13 23.6L18.4 19.4H20.5V40Z" fill="#313131"/>
<path d="M38.9001 35.4H35.9001V40H33.4001V35.4H23.8V33.1L33.2001 19.2H35.9001V33H38.9001V35.4ZM33.4001 33V28C33.4001 27.5 33.4001 26.9 33.4001 26.3C33.4001 25.7 33.4001 25.2 33.4001 24.6C33.4001 24 33.4 23.5 33.5 23.1C33.5 22.6 33.5 22.2 33.5 21.9H33.4001C33.3001 22.1 33.3001 22.3 33.2001 22.5C33.1 22.7 33.0001 23 32.9001 23.2C32.8001 23.4 32.7 23.7 32.5 23.9C32.4 24.1 32.3001 24.3 32.2001 24.5L26.4 33H33.4001Z" fill="#313131"/>
<path d="M14 1H9V9H14V1Z" stroke="#313131" stroke-width="2" stroke-miterlimit="10" stroke-linejoin="round"/>
<path d="M41 1H36V9H41V1Z" stroke="#313131" stroke-width="2" stroke-miterlimit="10" stroke-linejoin="round"/>
<path d="M48.7 52C49.4 52 50 51.9 50.7 51.7C53.6 50.9 55.9999 48.7 56.7999 45.5C57.7999 41.7 55.8999 37.8 52.5999 36" fill="white"/>
<path d="M48.7 52C49.4 52 50 51.9 50.7 51.7C53.6 50.9 55.9999 48.7 56.7999 45.5C57.7999 41.7 55.8999 37.8 52.5999 36" stroke="#313131" stroke-width="2" stroke-miterlimit="10" stroke-linejoin="round"/>
<path d="M48.6001 35C47.9001 35 47.1001 35.1 46.4001 35.2C43.4001 35.9 41.0001 38.2 40.2001 41.4C39.3001 45.2 41.0001 49 44.2001 50.8" fill="white"/>
<path d="M48.6001 35C47.9001 35 47.1001 35.1 46.4001 35.2C43.4001 35.9 41.0001 38.2 40.2001 41.4C39.3001 45.2 41.0001 49 44.2001 50.8" stroke="#313131" stroke-width="2" stroke-miterlimit="10" stroke-linejoin="round"/>
<path d="M52.4001 41.9L52.6001 35.6L58.9001 35.8" stroke="#313131" stroke-width="2" stroke-miterlimit="10"/>
<path d="M44.8 45.3L44.6 51.6L38.3 51.4" stroke="#313131" stroke-width="2" stroke-miterlimit="10"/>
</g>
<defs>
<clipPath id="clip0">
<rect width="58.9" height="53" fill="white"/>
</clipPath>
</defs>
</svg>
