<svg width="199" height="47" viewBox="0 0 199 47" fill="none" xmlns="http://www.w3.org/2000/svg">
<path d="M8.93772 37.7454C6.46873 37.7454 4.34541 36.9216 2.61712 35.3227C0.888834 33.6753 0 31.5918 0 29.0722V0H2.56774V29.0722C2.56774 30.9134 3.1603 32.4155 4.44417 33.6268C5.67866 34.8381 7.16005 35.4196 8.93772 35.4196H9.43151V37.7454H8.93772Z" fill="white"/>
<path d="M21.1839 37.8423C18.2705 37.8423 15.8509 36.8248 13.8757 34.8866C11.9006 32.9485 10.913 30.5258 10.913 27.7155V14.5361H13.4807V27.7155C13.4807 29.799 14.2214 31.6403 15.7522 33.1908C17.2829 34.7413 19.0606 35.5165 21.1839 35.5165C23.3073 35.5165 25.2331 34.7413 26.8626 33.1908C28.4921 31.6403 29.2822 29.8475 29.2822 27.7155V14.5361H31.8499V37.3093H29.2822V34.1598C27.4551 36.5825 24.7393 37.8423 21.1839 37.8423Z" fill="white"/>
<path d="M51.1574 37.3093L43.4048 25.8258L35.7015 37.3093H32.9363L42.0221 23.7423L35.8003 14.5361H38.8125L43.5035 21.5135L48.1946 14.5361H50.9105L44.8862 23.597L54.1695 37.3093H51.1574Z" fill="white"/>
<path d="M55.7002 37.3091V14.5359H58.2679V16.7163C58.8111 16.0864 59.5024 15.5534 60.2925 15.1174C61.6258 14.3906 63.1072 14.0029 64.7367 14.0029C66.3662 14.0029 67.9957 14.5359 69.4771 15.6504L69.6746 15.7957V19.139L68.8352 18.3153C67.4526 16.9586 66.0205 16.3287 64.391 16.3287C62.7615 16.3287 61.3789 16.9101 60.1444 18.1215C58.9099 19.3328 58.2679 20.6895 58.2679 22.2885V37.3091H55.7002Z" fill="white"/>
<path d="M83.0566 37.8909C79.7975 37.8909 76.9335 36.6796 74.5139 34.3054C72.0943 31.9311 70.9092 29.0724 70.9092 25.8744C70.9092 22.6765 72.1437 19.8662 74.5139 17.5404C76.8841 15.2146 79.8963 14.0518 83.4022 14.0518C86.9082 14.0518 89.9697 15.4569 92.4881 18.1703L92.7844 18.5095L77.3285 33.4817C79.205 34.8384 81.032 35.5652 82.7603 35.5652C84.6367 35.5652 86.365 35.1291 87.797 34.3054C89.2784 33.4817 90.5129 32.3188 91.5005 30.9136L92.3893 29.6054V33.8693L92.2412 34.0146C89.8216 36.6311 86.8588 37.9394 83.4022 37.9394H83.0566V37.8909ZM82.9578 16.3775C80.4888 16.3775 78.2667 17.3466 76.3409 19.2363C74.4151 21.126 73.4275 23.3064 73.4275 25.7291C73.4275 28.0064 74.1682 30.0414 75.6002 31.7858L89.1797 18.5095C87.402 17.1043 85.2787 16.3775 82.9578 16.3775Z" fill="white"/>
<path d="M95.3522 46.9998V14.5359H97.9199V18.606C98.8087 17.4431 99.9445 16.4256 101.376 15.6504C103.352 14.5359 105.426 14.0029 107.5 14.0029C110.857 14.0029 113.771 15.1658 116.19 17.4916C118.561 19.8174 119.746 22.6277 119.746 25.9225C119.746 29.1689 118.561 32.0277 116.19 34.3534C113.82 36.6792 110.907 37.8421 107.5 37.8421C105.426 37.8421 103.401 37.3091 101.475 36.1947C100.043 35.4194 98.8581 34.4019 97.9199 33.1906V46.9998H95.3522ZM107.549 16.3287C104.932 16.3287 102.611 17.2978 100.735 19.2359C98.8087 21.1741 97.8212 23.4029 97.8212 25.971C97.8212 28.539 98.8087 30.8163 100.735 32.6576C102.66 34.5473 104.981 35.5163 107.598 35.5163C110.215 35.5163 112.487 34.5473 114.363 32.706C116.24 30.8163 117.178 28.539 117.178 25.971C117.178 23.4029 116.24 21.1256 114.314 19.1875C112.438 17.2978 110.166 16.3287 107.549 16.3287Z" fill="white"/>
<path d="M131.399 37.7454C128.93 37.7454 126.807 36.9216 125.079 35.3227C123.35 33.7237 122.462 31.5918 122.462 29.0722V0H125.029V29.0722C125.029 30.9134 125.622 32.4155 126.906 33.6268C128.14 34.8381 129.622 35.4196 131.399 35.4196H131.893V37.7454H131.399Z" fill="white"/>
<path d="M134.51 37.3093V14.5846H137.078V37.3093H134.51ZM135.794 10.2238C134.56 10.2238 133.868 9.59385 133.868 8.43097C133.868 7.26808 134.56 6.63818 135.794 6.63818C137.029 6.63818 137.72 7.26808 137.72 8.43097C137.72 9.59385 137.029 10.2238 135.794 10.2238Z" fill="white"/>
<path d="M152.484 37.9392C149.176 37.9392 146.361 36.7278 143.991 34.3536C141.621 31.9794 140.436 29.1691 140.436 25.9711C140.436 22.7732 141.67 19.9629 144.04 17.6371C146.411 15.3113 149.423 14.1484 152.879 14.1484C156.385 14.1484 159.397 15.4567 161.817 18.0247L161.965 18.1701V22.434L161.076 21.1258C160.089 19.7206 158.854 18.5577 157.373 17.734C155.892 16.9103 154.311 16.4742 152.682 16.4742C150.114 16.4742 147.793 17.4433 145.917 19.333C143.991 21.2227 143.003 23.5 143.003 26.068C143.003 28.6845 143.991 30.9618 145.917 32.8031C147.843 34.6928 150.114 35.6618 152.682 35.6618C154.311 35.6618 155.892 35.2258 157.373 34.402C158.854 33.5783 160.089 32.4155 161.076 30.9618L161.965 29.6051V33.9175L161.817 34.0629C159.447 36.6309 156.435 37.9392 152.929 37.9392H152.484Z" fill="white"/>
<path d="M175.199 37.8421C171.841 37.8421 168.928 36.6792 166.558 34.3534C164.187 32.0277 162.953 29.2174 162.953 25.9225C162.953 22.6761 164.187 19.8174 166.558 17.4916C168.928 15.1658 171.841 14.0029 175.199 14.0029C177.372 14.0029 179.495 14.5844 181.52 15.6988C182.902 16.4741 183.989 17.4431 184.779 18.606V14.5359H187.346V37.3091H184.779V33.1421C183.89 34.3534 182.754 35.371 181.371 36.1462C179.446 37.2607 177.372 37.8421 175.199 37.8421ZM175.248 16.3287C172.631 16.3287 170.31 17.2978 168.434 19.2359C166.508 21.1741 165.521 23.4029 165.521 25.971C165.521 28.539 166.508 30.8163 168.434 32.6576C170.36 34.5473 172.681 35.5163 175.298 35.5163C177.915 35.5163 180.186 34.5473 182.063 32.706C183.939 30.8163 184.877 28.539 184.877 25.971C184.877 23.4029 183.939 21.1256 182.013 19.1875C180.137 17.2978 177.866 16.3287 175.248 16.3287Z" fill="white"/>
<path d="M192.926 22.9671C192.926 23.2093 193.025 23.4032 193.173 23.597C193.321 23.7908 193.519 23.8392 193.766 23.8392C194.013 23.8392 194.21 23.7423 194.408 23.5485C194.605 23.3547 194.753 23.1124 194.951 22.8217C195.148 22.531 195.296 22.2403 195.445 21.998C195.593 21.7557 195.84 21.465 196.136 21.2712C196.432 21.0774 196.728 20.9805 197.074 20.9805C197.617 20.9805 198.062 21.1743 198.457 21.5619C198.852 21.9495 199 22.4341 199 22.9671C199 23.3062 198.901 23.6454 198.753 23.9361C198.605 24.2269 198.407 24.4691 198.111 24.6145H197.469C198.21 24.2753 198.605 23.7423 198.605 23.0155C198.605 22.5794 198.457 22.1918 198.16 21.8526C197.864 21.5619 197.568 21.3681 197.173 21.3681C196.778 21.3681 196.531 21.465 196.284 21.6588C196.037 21.8526 195.84 22.0949 195.642 22.3856C195.494 22.6763 195.296 22.9671 195.148 23.2093C195 23.4516 194.803 23.7423 194.556 23.9361C194.309 24.13 194.062 24.2269 193.716 24.2269C193.42 24.2269 193.124 24.0815 192.926 23.8392C192.729 23.597 192.581 23.2578 192.581 22.8702C192.581 22.4825 192.729 22.1434 193.074 21.8526H193.618C193.173 22.1918 192.926 22.531 192.926 22.9671Z" fill="white"/>
<path d="M198.506 17.8311H198.901C198.901 18.461 198.704 18.9939 198.259 19.43C197.815 19.8661 197.272 20.1084 196.63 20.1084H190.309V19.6723H192.778V17.8311H193.173V19.6723H196.679C197.222 19.6723 197.667 19.4785 198.062 19.1393C198.358 18.7517 198.506 18.3156 198.506 17.8311Z" fill="white"/>
<path d="M198.012 16.4257C197.37 17.0556 196.63 17.3463 195.741 17.3463C194.901 17.3463 194.161 17.0556 193.519 16.4257C192.877 15.7958 192.581 15.069 192.581 14.1968C192.581 13.3247 192.877 12.5979 193.519 11.968C194.161 11.3381 194.901 11.0474 195.741 11.0474C196.58 11.0474 197.37 11.3381 198.012 11.968C198.654 12.5979 198.951 13.2762 198.951 14.1484V14.2453C198.951 15.1175 198.654 15.8443 198.012 16.4257ZM195.79 11.4834C195.05 11.4834 194.358 11.7742 193.815 12.3072C193.272 12.8401 192.976 13.47 192.976 14.2453C192.976 15.0206 193.272 15.6505 193.815 16.1834C194.358 16.7164 195.05 17.0072 195.79 17.0072C196.531 17.0072 197.222 16.7164 197.765 16.1834C198.309 15.6505 198.605 14.9721 198.605 14.2453C198.605 13.5185 198.309 12.8401 197.765 12.3072C197.222 11.7742 196.531 11.4834 195.79 11.4834Z" fill="white"/>
<path d="M192.976 7.84964C192.976 8.33417 193.173 8.7218 193.519 9.10943C193.864 9.44861 194.309 9.64242 194.753 9.64242H198.802V10.0785H192.729V9.64242H193.618C193.321 9.49706 193.074 9.25479 192.877 8.91562C192.679 8.57644 192.581 8.18881 192.581 7.80118C192.581 7.3651 192.729 6.97747 193.025 6.58984H193.568C193.173 6.92902 192.976 7.3651 192.976 7.84964Z" fill="white"/>
<path d="M199 2.71347V2.81038C199 3.63409 198.654 4.36089 198.012 4.99079C197.37 5.62068 196.63 5.91141 195.741 5.91141C194.901 5.91141 194.161 5.62068 193.519 4.99079C192.877 4.36089 192.581 3.58563 192.581 2.71347C192.581 1.79285 192.926 1.01759 193.667 0.387695L197.864 4.5547C198.358 3.97326 198.556 3.44027 198.556 2.90728C198.556 2.37429 198.407 1.88976 198.16 1.50213C197.914 1.06605 197.568 0.726871 197.173 0.436149H197.864C198.605 1.06605 199 1.79285 199 2.71347ZM192.976 2.85883C192.976 3.58563 193.272 4.16708 193.815 4.74852C194.358 5.28151 195 5.57223 195.741 5.57223C196.482 5.57223 197.074 5.32996 197.617 4.84543L193.716 0.969139C193.222 1.50213 192.976 2.13202 192.976 2.85883Z" fill="white"/>
<path d="M195.642 37.5999C197.497 37.5999 199 36.1248 199 34.3051C199 32.4854 197.497 31.0103 195.642 31.0103C193.788 31.0103 192.284 32.4854 192.284 34.3051C192.284 36.1248 193.788 37.5999 195.642 37.5999Z" fill="white"/>
</svg>
