<svg width="22" height="25" viewBox="0 0 22 25" fill="none" xmlns="http://www.w3.org/2000/svg">
<path fill-rule="evenodd" clip-rule="evenodd" d="M7.03095 6C7.277 4.02684 8.9602 2.5 11 2.5C13.0398 2.5 14.723 4.02684 14.9691 6H7.03095ZM5.02054 6C5.27462 2.92023 7.85467 0.5 11 0.5C14.1453 0.5 16.7254 2.92023 16.9795 6H18.5C18.9961 6 19.4172 6.3637 19.4894 6.85451L21.9894 23.8545C22.0316 24.142 21.9468 24.4337 21.7568 24.6536C21.5669 24.8736 21.2906 25 21 25H1.00001C0.709397 25 0.433162 24.8736 0.243206 24.6536C0.0532504 24.4337 -0.0316344 24.142 0.0106476 23.8545L2.51065 6.85451C2.58283 6.3637 3.00392 6 3.50001 6H5.02054ZM2.15782 23L4.3637 8H17.6363L19.8422 23H2.15782Z" fill="#313131"/>
</svg>
