<svg width="199" height="47" viewBox="0 0 199 47" fill="none" xmlns="http://www.w3.org/2000/svg">
<path d="M8.93772 37.7454C6.46873 37.7454 4.34541 36.9216 2.61712 35.3227C0.888834 33.6753 0 31.5918 0 29.0722V0H2.56774V29.0722C2.56774 30.9134 3.1603 32.4155 4.44417 33.6268C5.67866 34.8381 7.16005 35.4196 8.93772 35.4196H9.43151V37.7454H8.93772Z" fill="#313131"/>
<path d="M21.1839 37.8423C18.2705 37.8423 15.8509 36.8247 13.8757 34.8866C11.9006 32.9485 10.913 30.5258 10.913 27.7155V14.5361H13.4807V27.7155C13.4807 29.799 14.2214 31.6402 15.7522 33.1907C17.2829 34.7412 19.0606 35.5165 21.1839 35.5165C23.3073 35.5165 25.2331 34.7412 26.8626 33.1907C28.4921 31.6402 29.2822 29.8474 29.2822 27.7155V14.5361H31.8499V37.3093H29.2822V34.1598C27.4551 36.5825 24.7393 37.8423 21.1839 37.8423Z" fill="#313131"/>
<path d="M51.1574 37.3093L43.4048 25.8258L35.7015 37.3093H32.9363L42.0221 23.7423L35.8003 14.5361H38.8125L43.5035 21.5134L48.1946 14.5361H50.9105L44.8862 23.5969L54.1695 37.3093H51.1574Z" fill="#313131"/>
<path d="M55.7002 37.3093V14.5361H58.2679V16.7165C58.8111 16.0866 59.5024 15.5536 60.2925 15.1175C61.6258 14.3907 63.1072 14.0031 64.7367 14.0031C66.3662 14.0031 67.9957 14.5361 69.4771 15.6505L69.6746 15.7959V19.1392L68.8352 18.3155C67.4526 16.9588 66.0205 16.3289 64.391 16.3289C62.7615 16.3289 61.3789 16.9103 60.1444 18.1216C58.9099 19.333 58.2679 20.6897 58.2679 22.2887V37.3093H55.7002Z" fill="#313131"/>
<path d="M83.0566 37.8907C79.7975 37.8907 76.9335 36.6794 74.5139 34.3052C72.0943 31.9309 70.9092 29.0722 70.9092 25.8742C70.9092 22.6763 72.1437 19.866 74.5139 17.5402C76.8841 15.2144 79.8963 14.0515 83.4022 14.0515C86.9082 14.0515 89.9697 15.4567 92.4881 18.1701L92.7844 18.5093L77.3285 33.4814C79.205 34.8381 81.032 35.565 82.7603 35.565C84.6367 35.565 86.365 35.1289 87.797 34.3052C89.2784 33.4814 90.5129 32.3186 91.5005 30.9134L92.3893 29.6052V33.8691L92.2412 34.0144C89.8216 36.6309 86.8588 37.9392 83.4022 37.9392H83.0566V37.8907ZM82.9578 16.3773C80.4888 16.3773 78.2667 17.3464 76.3409 19.2361C74.4151 21.1258 73.4275 23.3062 73.4275 25.7289C73.4275 28.0062 74.1682 30.0412 75.6002 31.7856L89.1797 18.5093C87.402 17.1041 85.2787 16.3773 82.9578 16.3773Z" fill="#313131"/>
<path d="M95.3522 47V14.5361H97.9199V18.6062C98.8087 17.4433 99.9445 16.4258 101.376 15.6505C103.352 14.5361 105.426 14.0031 107.5 14.0031C110.857 14.0031 113.771 15.166 116.19 17.4918C118.561 19.8175 119.746 22.6278 119.746 25.9227C119.746 29.1691 118.561 32.0278 116.19 34.3536C113.82 36.6794 110.907 37.8423 107.5 37.8423C105.426 37.8423 103.401 37.3093 101.475 36.1948C100.043 35.4196 98.8581 34.4021 97.9199 33.1907V47H95.3522ZM107.549 16.3289C104.932 16.3289 102.611 17.2979 100.735 19.2361C98.8087 21.1742 97.8212 23.4031 97.8212 25.9711C97.8212 28.5392 98.8087 30.8165 100.735 32.6577C102.66 34.5474 104.981 35.5165 107.598 35.5165C110.215 35.5165 112.487 34.5474 114.363 32.7062C116.24 30.8165 117.178 28.5392 117.178 25.9711C117.178 23.4031 116.24 21.1258 114.314 19.1876C112.438 17.2979 110.166 16.3289 107.549 16.3289Z" fill="#313131"/>
<path d="M131.399 37.7454C128.93 37.7454 126.807 36.9216 125.079 35.3227C123.35 33.7237 122.462 31.5918 122.462 29.0722V0H125.029V29.0722C125.029 30.9134 125.622 32.4155 126.906 33.6268C128.14 34.8381 129.622 35.4196 131.399 35.4196H131.893V37.7454H131.399Z" fill="#313131"/>
<path d="M134.51 37.3093V14.5845H137.078V37.3093H134.51ZM135.794 10.2237C134.56 10.2237 133.868 9.59381 133.868 8.43093C133.868 7.26804 134.56 6.63814 135.794 6.63814C137.029 6.63814 137.72 7.26804 137.72 8.43093C137.72 9.59381 137.029 10.2237 135.794 10.2237Z" fill="#313131"/>
<path d="M152.484 37.9392C149.176 37.9392 146.361 36.7278 143.991 34.3536C141.621 31.9794 140.436 29.1691 140.436 25.9711C140.436 22.7732 141.67 19.9629 144.04 17.6371C146.411 15.3113 149.423 14.1485 152.879 14.1485C156.385 14.1485 159.397 15.4567 161.817 18.0247L161.965 18.1701V22.434L161.076 21.1258C160.089 19.7206 158.854 18.5577 157.373 17.734C155.892 16.9103 154.311 16.4742 152.682 16.4742C150.114 16.4742 147.793 17.4433 145.917 19.333C143.991 21.2227 143.003 23.5 143.003 26.068C143.003 28.6845 143.991 30.9619 145.917 32.8031C147.843 34.6928 150.114 35.6619 152.682 35.6619C154.311 35.6619 155.892 35.2258 157.373 34.4021C158.854 33.5784 160.089 32.4155 161.076 30.9619L161.965 29.6052V33.9175L161.817 34.0629C159.447 36.6309 156.435 37.9392 152.929 37.9392H152.484Z" fill="#313131"/>
<path d="M175.199 37.8423C171.841 37.8423 168.928 36.6794 166.558 34.3536C164.187 32.0278 162.953 29.2175 162.953 25.9227C162.953 22.6763 164.187 19.8175 166.558 17.4918C168.928 15.166 171.841 14.0031 175.199 14.0031C177.372 14.0031 179.495 14.5845 181.52 15.699C182.902 16.4742 183.989 17.4433 184.779 18.6062V14.5361H187.346V37.3093H184.779V33.1423C183.89 34.3536 182.754 35.3711 181.371 36.1464C179.446 37.2608 177.372 37.8423 175.199 37.8423ZM175.248 16.3289C172.631 16.3289 170.31 17.2979 168.434 19.2361C166.508 21.1742 165.521 23.4031 165.521 25.9711C165.521 28.5392 166.508 30.8165 168.434 32.6577C170.36 34.5474 172.681 35.5165 175.298 35.5165C177.915 35.5165 180.186 34.5474 182.063 32.7062C183.939 30.8165 184.877 28.5392 184.877 25.9711C184.877 23.4031 183.939 21.1258 182.013 19.1876C180.137 17.2979 177.866 16.3289 175.248 16.3289Z" fill="#313131"/>
<path d="M192.926 22.967C192.926 23.2093 193.025 23.4031 193.173 23.5969C193.321 23.7907 193.519 23.8392 193.766 23.8392C194.013 23.8392 194.21 23.7423 194.408 23.5485C194.605 23.3546 194.753 23.1124 194.951 22.8216C195.148 22.5309 195.296 22.2402 195.445 21.9979C195.593 21.7557 195.84 21.4649 196.136 21.2711C196.432 21.0773 196.728 20.9804 197.074 20.9804C197.617 20.9804 198.062 21.1742 198.457 21.5619C198.852 21.9495 199 22.434 199 22.967C199 23.3062 198.901 23.6454 198.753 23.9361C198.605 24.2268 198.407 24.4691 198.111 24.6144H197.469C198.21 24.2753 198.605 23.7423 198.605 23.0155C198.605 22.5794 198.457 22.1917 198.16 21.8526C197.864 21.5619 197.568 21.368 197.173 21.368C196.778 21.368 196.531 21.4649 196.284 21.6588C196.037 21.8526 195.84 22.0948 195.642 22.3856C195.494 22.6763 195.296 22.967 195.148 23.2093C195 23.4515 194.803 23.7423 194.556 23.9361C194.309 24.1299 194.062 24.2268 193.716 24.2268C193.42 24.2268 193.124 24.0814 192.926 23.8392C192.729 23.5969 192.581 23.2577 192.581 22.8701C192.581 22.4825 192.729 22.1433 193.074 21.8526H193.618C193.173 22.1917 192.926 22.5309 192.926 22.967Z" fill="#313131"/>
<path d="M198.506 17.8309H198.901C198.901 18.4608 198.704 18.9938 198.259 19.4299C197.815 19.866 197.272 20.1082 196.63 20.1082H190.309V19.6722H192.778V17.8309H193.173V19.6722H196.679C197.222 19.6722 197.667 19.4783 198.062 19.1392C198.358 18.7515 198.506 18.3155 198.506 17.8309Z" fill="#313131"/>
<path d="M198.012 16.4258C197.37 17.0557 196.63 17.3464 195.741 17.3464C194.901 17.3464 194.161 17.0557 193.519 16.4258C192.877 15.7959 192.581 15.0691 192.581 14.1969C192.581 13.3247 192.877 12.5979 193.519 11.968C194.161 11.3381 194.901 11.0474 195.741 11.0474C196.58 11.0474 197.37 11.3381 198.012 11.968C198.654 12.5979 198.951 13.2763 198.951 14.1485V14.2454C198.951 15.1175 198.654 15.8443 198.012 16.4258ZM195.79 11.4835C195.05 11.4835 194.358 11.7742 193.815 12.3072C193.272 12.8402 192.976 13.4701 192.976 14.2454C192.976 15.0206 193.272 15.6505 193.815 16.1835C194.358 16.7165 195.05 17.0072 195.79 17.0072C196.531 17.0072 197.222 16.7165 197.765 16.1835C198.309 15.6505 198.605 14.9722 198.605 14.2454C198.605 13.5186 198.309 12.8402 197.765 12.3072C197.222 11.7742 196.531 11.4835 195.79 11.4835Z" fill="#313131"/>
<path d="M192.976 7.84949C192.976 8.33402 193.173 8.72165 193.519 9.10928C193.864 9.44845 194.309 9.64227 194.753 9.64227H198.802V10.0784H192.729V9.64227H193.618C193.321 9.49691 193.074 9.25464 192.877 8.91546C192.679 8.57629 192.581 8.18866 192.581 7.80103C192.581 7.36495 192.729 6.97732 193.025 6.58969H193.568C193.173 6.92887 192.976 7.36495 192.976 7.84949Z" fill="#313131"/>
<path d="M199 2.7134V2.81031C199 3.63402 198.654 4.36082 198.012 4.99072C197.37 5.62062 196.63 5.91134 195.741 5.91134C194.901 5.91134 194.161 5.62062 193.519 4.99072C192.877 4.36082 192.581 3.58557 192.581 2.7134C192.581 1.79278 192.926 1.01753 193.667 0.387629L197.864 4.55464C198.358 3.9732 198.556 3.44021 198.556 2.90722C198.556 2.37423 198.407 1.88969 198.16 1.50206C197.914 1.06598 197.568 0.726804 197.173 0.436083H197.864C198.605 1.06598 199 1.79278 199 2.7134ZM192.976 2.85876C192.976 3.58557 193.272 4.16701 193.815 4.74845C194.358 5.28144 195 5.57216 195.741 5.57216C196.482 5.57216 197.074 5.3299 197.617 4.84536L193.716 0.969072C193.222 1.50206 192.976 2.13196 192.976 2.85876Z" fill="#313131"/>
<path d="M195.642 37.6C197.497 37.6 199 36.1249 199 34.3052C199 32.4855 197.497 31.0103 195.642 31.0103C193.788 31.0103 192.284 32.4855 192.284 34.3052C192.284 36.1249 193.788 37.6 195.642 37.6Z" fill="#313131"/>
</svg>
