<svg width="23" height="23" viewBox="0 0 23 23" fill="none" xmlns="http://www.w3.org/2000/svg">
<path fill-rule="evenodd" clip-rule="evenodd" d="M18.7773 10.8235C18.7773 15.2854 15.1846 18.8823 10.7773 18.8823C6.37011 18.8823 2.77734 15.2854 2.77734 10.8235C2.77734 6.36168 6.37011 2.7647 10.7773 2.7647C15.1846 2.7647 18.7773 6.36168 18.7773 10.8235ZM17.4693 18.2982C15.6971 19.9046 13.3507 20.8823 10.7773 20.8823C5.2545 20.8823 0.777344 16.3789 0.777344 10.8235C0.777344 5.26819 5.2545 0.764702 10.7773 0.764702C16.3002 0.764702 20.7773 5.26819 20.7773 10.8235C20.7773 13.0673 20.0469 15.1396 18.8123 16.8128L22.9995 21L21.5853 22.4142L17.4693 18.2982Z" fill="#313131"/>
</svg>
