<svg width="7" height="14" viewBox="0 0 7 14" fill="none" xmlns="http://www.w3.org/2000/svg">
<path d="M6.73077 0H5.04808C3.16346 0 1.95192 1.3472 1.95192 3.44083V5.02471H0.269231C0.117788 5.02471 0 5.15215 0 5.31599V7.60988C0 7.77373 0.117788 7.90117 0.269231 7.90117H1.95192V13.7087C1.95192 13.8726 2.06971 14 2.22115 14H4.42548C4.57692 14 4.69471 13.8726 4.69471 13.7087V7.90117H6.66346C6.8149 7.90117 6.93269 7.77373 6.93269 7.60988V5.31599C6.93269 5.24317 6.89904 5.17035 6.84856 5.11573C6.79808 5.06112 6.73077 5.02471 6.66346 5.02471H4.67788V3.6775C4.67788 3.02211 4.8125 2.69441 5.60337 2.69441H6.73077C6.88221 2.69441 7 2.56697 7 2.40312V0.291287C7 0.127438 6.88221 0 6.73077 0Z" fill="#fff"/>
</svg>
