<svg width="15" height="11" viewBox="0 0 15 11" fill="none" xmlns="http://www.w3.org/2000/svg">
<path d="M15 1.30096C14.4434 1.52308 13.8486 1.66851 13.2275 1.7399C13.8662 1.39615 14.3525 0.85673 14.5811 0.20625C13.9863 0.526201 13.3301 0.750961 12.6299 0.877884C12.0674 0.335817 11.2617 0 10.3857 0C8.68359 0 7.3125 1.24808 7.3125 2.77644C7.3125 2.99591 7.33301 3.20745 7.38281 3.40841C4.8252 3.29735 2.56348 2.18942 1.04297 0.505048C0.776367 0.920191 0.621094 1.39615 0.621094 1.90913C0.621094 2.87163 1.16895 3.72307 1.98633 4.2149C1.49121 4.20697 1.00781 4.0774 0.597656 3.87379C0.597656 3.88173 0.597656 3.8923 0.597656 3.90552C0.597656 5.25408 1.66406 6.37523 3.06152 6.63172C2.8125 6.69254 2.53711 6.72427 2.25586 6.72427C2.05957 6.72427 1.86035 6.71369 1.67285 6.67668C2.07129 7.77667 3.20215 8.58316 4.54687 8.60961C3.50098 9.34735 2.1709 9.79422 0.735352 9.79422C0.483398 9.79422 0.240234 9.78364 0 9.7572C1.3623 10.5505 2.97656 11.0026 4.7168 11.0026C10.377 11.0026 13.4707 6.77187 13.4707 3.10432C13.4707 2.98269 13.4648 2.8637 13.459 2.74471C14.0684 2.35336 14.5811 1.86418 15 1.30096Z" fill="#fff"/>
</svg>
