<svg width="18" height="10" viewBox="0 0 18 10" fill="none" xmlns="http://www.w3.org/2000/svg">
<g clip-path="url(#clip0)">
<path d="M8.80771 9.96034H9.88349C9.88349 9.96034 10.2069 9.92611 10.3757 9.75151C10.5304 9.59061 10.5233 9.29276 10.5233 9.29276C10.5233 9.29276 10.5022 7.88571 11.1737 7.6803C11.8347 7.47489 12.6819 9.03943 13.5819 9.63854C14.2604 10.0939 14.7772 9.99458 14.7772 9.99458L17.1819 9.96034C17.1819 9.96034 18.4405 9.88503 17.8429 8.92303C17.7936 8.84429 17.4948 8.21094 16.0569 6.91002C14.5487 5.54747 14.7526 5.77 16.5667 3.41122C17.6741 1.97678 18.1136 1.10036 17.9765 0.72378C17.8464 0.367737 17.0308 0.460172 17.0308 0.460172L14.3272 0.473865C14.3272 0.473865 14.1268 0.446478 13.9757 0.535488C13.8315 0.621075 13.7366 0.819637 13.7366 0.819637C13.7366 0.819637 13.3077 1.92885 12.7382 2.87373C11.5323 4.8662 11.0507 4.97232 10.8538 4.84908C10.3968 4.56151 10.5093 3.68852 10.5093 3.07229C10.5093 1.14144 10.8081 0.336926 9.92216 0.128093C9.62685 0.0596238 9.41239 0.011695 8.66005 0.00484801C7.69325 -0.00542245 6.87763 0.00827149 6.41356 0.227375C6.10419 0.374584 5.86864 0.703239 6.01278 0.720356C6.19208 0.744321 6.59638 0.826484 6.81083 1.11063C7.08856 1.47695 7.07802 2.30201 7.07802 2.30201C7.07802 2.30201 7.23622 4.5752 6.70536 4.85935C6.33974 5.05449 5.84052 4.65736 4.76474 2.84976C4.2163 1.92542 3.79794 0.898378 3.79794 0.898378C3.79794 0.898378 3.71708 0.706662 3.57646 0.607381C3.40419 0.484136 3.16161 0.443054 3.16161 0.443054L0.588174 0.456748C0.588174 0.456748 0.201455 0.467018 0.0608299 0.631346C-0.0657326 0.778556 0.050283 1.0764 0.050283 1.0764C0.050283 1.0764 2.06474 5.66387 4.34286 7.97472C6.43466 10.0973 8.80771 9.96034 8.80771 9.96034Z" fill="#313131"/>
</g>
<defs>
<clipPath id="clip0">
<rect width="18" height="10" fill="white"/>
</clipPath>
</defs>
</svg>
